<svg xmlns="http://www.w3.org/2000/svg" xmlns:xlink="http://www.w3.org/1999/xlink" xmlns:lucid="lucid" width="1302.63" height="540"><g transform="translate(-60 -60)" lucid:page-tab-id="0_0"><path d="M0 0h1760v1360H0z" fill="#fff"/><path d="M542.87 80h578.75v500H542.88z" stroke="#000" stroke-opacity="0" fill="#e3f2fd"/><path d="M561.63 250h160v175h-160z" stroke="#ccc" fill="#fff"/><path d="M80 80h444.25v500H80z" stroke="#000" stroke-opacity="0" fill="#ede7f6"/><path d="M1142.63 80h200v500h-200z" stroke="#000" stroke-opacity="0" fill="#fff8e1"/><path d="M104.3 258.02c0-2.76 2.23-5 5-5h110c2.75 0 5 2.24 5 5v140c0 2.76-2.25 5-5 5h-110c-2.77 0-5-2.24-5-5z" stroke="#ccc" fill="#fff"/><g opacity=".8" stroke="#000" stroke-opacity="0"><path d="M164.3 328.02c7.35 0 13.35-6 13.35-13.36 0-7.36-6-13.28-13.36-13.28-7.37 0-13.37 5.92-13.37 13.28 0 7.36 6 13.36 13.36 13.36zm0 6.64c-8.9 0-26.65 4.48-26.65 13.36v6.64h53.28v-6.64c0-8.88-17.76-13.36-26.64-13.36z"/><path d="M124.3 288.02h80v80h-80z" fill-opacity="0"/></g><path d="M253.96 160h248.16v140H253.97z" stroke="#ccc" fill="#fff"/><path d="M338.13 240h80v60h-80z" stroke="#000" stroke-opacity="0" stroke-width="2" fill="#fff" fill-opacity="0"/><use xlink:href="#a" transform="matrix(1,0,0,1,343.125,245) translate(9.858940972222221 32.595486111111114)"/><path d="M253.96 378h248.16v150H253.97z" stroke="#ccc" fill="#fff"/><path d="M337.13 460h80v60h-80z" stroke="#000" stroke-opacity="0" stroke-width="2" fill="#fff" fill-opacity="0"/><use xlink:href="#b" transform="matrix(1,0,0,1,342.125,465) translate(1.6178385416666714 32.595486111111114)"/><g opacity=".8" stroke="#000" stroke-opacity="0"><path d="M408.76 196.64H355.5c-3.7 0-6.65 3.04-6.65 6.72l-.1 33.28c0 3.68 3.06 6.72 6.74 6.72h53.26c3.7 0 6.73-3.04 6.73-6.72v-33.28c0-3.68-3.06-6.72-6.74-6.72zm-30 10h6.73v6.72h-6.74v-6.72zm0 10h6.73v6.72h-6.74v-6.72zm-10-10h6.73v6.72h-6.74v-6.72zm0 10h6.73v6.72h-6.74v-6.72zm-3.27 6.72h-6.74v-6.72h6.73v6.72zm0-10h-6.74v-6.72h6.73v6.72zm30 23.28h-26.74V230h26.73v6.64zm0-13.28h-6.74v-6.72h6.73v6.72zm0-10h-6.74v-6.72h6.73v6.72zm10 10h-6.74v-6.72h6.73v6.72zm0-10h-6.74v-6.72h6.73v6.72z"/><path d="M342.13 180h80v80h-80zm0 0h80v80h-80z" fill-opacity="0"/></g><g opacity=".8" stroke="#000" stroke-opacity="0"><path d="M457.13 230c5.5 0 10-4.48 10-10v-20c0-5.52-4.5-10-10-10-5.52 0-10 4.48-10 10v20c0 5.52 4.48 10 10 10zm17.68-10c0 10-8.48 17.04-17.68 17.04S439.44 230 439.44 220h-5.68c0 11.44 9.13 20.8 20 22.4v10.96h6.73V242.4c10.87-1.6 20-11.04 20-22.4h-5.7z"/><path d="M417.13 180h80v80h-80z" fill-opacity="0"/></g><g opacity=".8" stroke="#000" stroke-opacity="0"><path d="M430.88 430v20h11.7l14.55 16.64v-53.28L442.56 430h-11.7zm39.4 10c0-5.92-3-10.96-7.34-13.44v26.88c4.33-2.48 7.34-7.52 7.34-13.44zm-7.34-29.2v6.8c8.46 2.88 14.63 11.84 14.63 22.4 0 10.56-6.17 19.52-14.63 22.4v6.8c11.7-2.96 20.44-14.96 20.44-29.2 0-14.24-8.75-26.16-20.44-29.2z"/><path d="M422.13 400h70v80h-70z" fill-opacity="0"/></g><path d="M164.3 251.52V230h70.66" stroke="#333" stroke-width="2" fill="none"/><path d="M165.3 252.52h-2v-1.02h2z" fill="#333"/><path d="M250.22 230l-14.26 4.64v-9.28z" stroke="#333" stroke-width="2" fill="#333"/><path d="M164.3 422.02V453h88.16" stroke="#333" stroke-width="2" fill="none"/><path d="M164.3 406.76l4.63 14.26h-9.27z" stroke="#333" stroke-width="2" fill="#333"/><path d="M253.46 454h-1.03v-2h1.03z" fill="#333"/><path d="M1167.13 256.37h160v191.26h-160z" stroke="#ccc" fill="#fff"/><path d="M1207.13 375.45h80v67.85h-80z" stroke="#000" stroke-opacity="0" stroke-width="2" fill="#fff" fill-opacity="0"/><use xlink:href="#c" transform="matrix(1,0,0,1,1212.125,380.4517304189435) translate(17.72026909722222 23.57465277777778)"/><use xlink:href="#d" transform="matrix(1,0,0,1,1212.125,380.4517304189435) translate(-0.25390625 49.61631944444444)"/><path d="M841.63 446.5V473h80.74" stroke="#333" stroke-width="2" fill="none"/><path d="M841.63 431.24l4.63 14.26H837zM937.64 473l-14.27 4.64v-9.28z" stroke="#333" stroke-width="2" fill="#333"/><g opacity=".8" stroke="#000" stroke-opacity="0"><path d="M408.1 413.36h-55.95c-3.86 0-6.97 2.96-6.97 6.64l-.08 40c0 3.68 3.2 6.64 7.05 6.64h55.95c3.86 0 7.05-2.96 7.05-6.64v-40c0-3.68-3.2-6.64-7.05-6.64zM390.62 460h-38.47v-13.36h38.48V460zm0-16.64h-38.47V430h38.48v13.36zM408.1 460h-13.95v-30h13.95v30z"/><path d="M338.13 400h84v80h-84z" fill-opacity="0"/></g><path d="M761.63 252.5h160v175h-160z" stroke="#ccc" fill="#fff"/><g opacity=".8" stroke="#000" stroke-opacity="0"><path d="M801.63 282.5h80v80h-80z" fill-opacity="0"/><path d="M868.27 325.86H815c-1.86 0-3.38 1.44-3.38 3.28v20c0 1.84 1.52 3.36 3.37 3.36h53.27c1.84 0 3.36-1.52 3.36-3.36v-20c0-1.84-1.52-3.28-3.36-3.28zm-43.28 20c-3.7 0-6.74-3.04-6.74-6.72 0-3.68 3.05-6.64 6.73-6.64 3.6 0 6.63 3.04 6.63 6.64 0 3.68-3.04 6.72-6.64 6.72zm43.27-53.36H815c-1.86 0-3.38 1.52-3.38 3.36v20c0 1.84 1.52 3.28 3.37 3.28h53.27c1.84 0 3.36-1.44 3.36-3.28v-20c0-1.84-1.52-3.36-3.36-3.36zm-43.28 20c-3.7 0-6.74-3.04-6.74-6.64 0-3.68 3.05-6.72 6.73-6.72 3.6 0 6.63 3.04 6.63 6.72 0 3.6-3.04 6.64-6.64 6.64z"/></g><path d="M801.63 361.46h80v62.08h-80z" stroke="#000" stroke-opacity="0" stroke-width="2" fill="#fff" fill-opacity="0"/><use xlink:href="#e" transform="matrix(1,0,0,1,806.625,366.4583333333333) translate(12.457682291666668 21.07465277777778)"/><use xlink:href="#f" transform="matrix(1,0,0,1,806.625,366.4583333333333) translate(-0.25390625 47.11631944444444)"/><path d="M1202.63 80h80v65.57h-80z" stroke="#000" stroke-opacity="0" stroke-width="2" fill="#fff" fill-opacity="0"/><use xlink:href="#g" transform="matrix(1,0,0,1,1207.625,85) translate(-18.07074652777778 35.595486111111114)"/><path d="M261.75 80h144v60h-144z" stroke="#000" stroke-opacity="0" stroke-width="2" fill="#fff" fill-opacity="0"/><use xlink:href="#h" transform="matrix(1,0,0,1,266.75,85) translate(21.969618055555557 32.595486111111114)"/><path d="M761.62 80h141v60h-141z" stroke="#000" stroke-opacity="0" stroke-width="2" fill="#fff" fill-opacity="0"/><use xlink:href="#i" transform="matrix(1,0,0,1,766.6249999999999,85) translate(3.282118055555557 32.595486111111114)"/><use xlink:href="#j" transform="matrix(1,0,0,1,766.6249999999999,85) translate(54.95312499999999 32.595486111111114)"/><path d="M942.88 120h160v175h-160zM941.38 385.5h160v175h-160z" stroke="#ccc" fill="#fff"/><g opacity=".8" stroke="#000" stroke-opacity="0"><path d="M984.38 135.94h80v80h-80z" fill-opacity="0"/><path d="M1048.86 169.38c-2.24-11.44-12.32-20.08-24.48-20.08-9.6 0-18 5.44-22.17 13.44-10.07 1.04-17.83 9.6-17.83 19.84 0 11.04 8.97 20 20 20h43.36c9.2 0 16.64-7.44 16.64-16.64 0-8.8-6.8-15.92-15.5-16.56z"/></g><g opacity=".8" stroke="#000" stroke-opacity="0"><path d="M981.38 405.5h80v80h-80z" fill-opacity="0"/><path d="M988 472.14h66.73v-13.28H988v13.28zm6.74-10h6.63v6.72h-6.63v-6.72zM988 418.86v13.28h66.73v-13.28H988zm13.38 10h-6.64v-6.72h6.63v6.72zM988 452.14h66.73v-13.28H988v13.28zm6.74-10h6.63v6.72h-6.63v-6.72z"/></g><path d="M984.38 215.94h80v62.08h-80z" stroke="#000" stroke-opacity="0" stroke-width="2" fill="#fff" fill-opacity="0"/><use xlink:href="#k" transform="matrix(1,0,0,1,989.375,220.93749999999997) translate(-4.968532986111107 21.07465277777778)"/><use xlink:href="#l" transform="matrix(1,0,0,1,989.375,220.93749999999997) translate(11.991102430555557 47.11631944444444)"/><path d="M981.38 485.5h80v60h-80z" stroke="#000" stroke-opacity="0" stroke-width="2" fill="#fff" fill-opacity="0"/><use xlink:href="#m" transform="matrix(1,0,0,1,986.375,490.5) translate(-11.896701388888886 32.595486111111114)"/><path d="M101.63 436.04h154.5v60h-154.5z" stroke="#000" stroke-opacity="0" stroke-width="2" fill="#fff" fill-opacity="0"/><use xlink:href="#n" transform="matrix(1,0,0,1,106.625,441.04166666666663) translate(11.812065972222229 32.595486111111114)"/><use xlink:href="#o" transform="matrix(1,0,0,1,106.625,441.04166666666663) translate(35.64019097222223 32.595486111111114)"/><path d="M101.63 163.96h146.62v62.08H101.62z" stroke="#000" stroke-opacity="0" stroke-width="2" fill="#fff" fill-opacity="0"/><use xlink:href="#p" transform="matrix(1,0,0,1,106.625,168.95833333333337) translate(2.3650173611111143 34.095486111111114)"/><use xlink:href="#q" transform="matrix(1,0,0,1,106.625,168.95833333333337) translate(26.19314236111111 34.095486111111114)"/><g opacity=".8" stroke="#000" stroke-opacity="0"><path d="M601.63 275h80v80h-80v-80z" fill-opacity="0"/><path d="M633 330.36L617.6 315 633 299.64l-4.74-4.64-20 20 20 20 4.73-4.64zm17.26 0L665.63 315l-15.37-15.36L655 295l20 20-20 20-4.74-4.64z"/></g><path d="M581.63 331.88h120V420h-120z" stroke="#000" stroke-opacity="0" stroke-width="2" fill="#fff" fill-opacity="0"/><use xlink:href="#r" transform="matrix(1,0,0,1,586.625,336.875) translate(32.45768229166667 34.07465277777778)"/><use xlink:href="#s" transform="matrix(1,0,0,1,586.625,336.875) translate(6.882595486111114 60.11631944444444)"/><use xlink:href="#t" transform="matrix(1,0,0,1,586.625,336.875) translate(66.09483506944446 60.11631944444444)"/><path d="M1291.05 313.8l-18.45-31.85c-1.44-2.48-4.05-4-7.02-4.08h-37c-2.88.08-5.48 1.6-6.92 4.08l-18.46 31.76c-1.43 2.4-1.43 5.45 0 7.93l18.45 32c1.44 2.56 4.05 4.16 6.93 4.24h37c2.97-.08 5.58-1.68 7.02-4.24l18.45-31.76c1.44-2.56 1.44-5.6 0-8.08z" stroke="#000" stroke-opacity="0" fill="#4285f4"/><path d="M1267.1 303.7l-40.04.1 14.66 14.55-14.66 9.36 12.96 12.8-1.36 2.57 14.94 14.8h11.98c2.97-.16 5.58-1.76 7.02-4.24l16.38-28.24-21.88-21.7z" stroke="#000" stroke-opacity="0" fill-opacity=".07"/><path d="M1247.5 314.67l19.6-10.96-17.8-10.15c-1.37-.72-2.98-.72-4.34 0l-17.9 10.24 20.43 10.87z" stroke="#000" stroke-opacity="0" fill="#fff"/><path d="M1247.5 319.23l-21.43-11.36v17.36c-.1 1.28.63 2.4 1.7 3.04l9.73 5.6c.54.32.8.88.8 1.52v6.95c0 .4.28.72.55.88.36.24.72.24 1.08 0l26.45-14.96c1.17-.56 1.8-1.76 1.8-3.04V307.7l-20.7 11.53z" stroke="#000" stroke-opacity="0" fill="#fff"/><path d="M560.13 360.67h-28.25V453h-10.75" stroke="#333" stroke-width="2" fill="none"/><path d="M561.13 361.67h-1.03v-2h1.02z" fill="#333"/><path d="M505.86 453l14.27-4.64v9.28z" stroke="#333" stroke-width="2" fill="#333"/><path d="M841.63 233.5v-26h82.24" stroke="#333" stroke-width="2" fill="none"/><path d="M841.63 248.76L837 234.5h9.26zM939.14 207.5l-14.27 4.64v-9.28z" stroke="#333" stroke-width="2" fill="#333"/><path d="M923.13 318h225" stroke="#333" stroke-width="2" fill="none"/><path d="M923.15 319h-1.02v-2h1.02z" fill="#333"/><path d="M1163.4 318l-14.28 4.64v-9.28z" stroke="#333" stroke-width="2" fill="#333"/><path d="M940.63 360.67h225" stroke="#333" stroke-width="2" fill="none"/><path d="M925.36 360.67l14.27-4.64v9.27z" stroke="#333" stroke-width="2" fill="#333"/><path d="M1166.63 361.67h-1.03v-2h1.03z" fill="#333"/><path d="M723.13 318h19.5" stroke="#333" stroke-width="2" fill="none"/><path d="M723.15 319h-1.02v-2h1.02z" fill="#333"/><path d="M757.9 318l-14.28 4.64v-9.28z" stroke="#333" stroke-width="2" fill="#333"/><path d="M740.63 363.33h19.5" stroke="#333" stroke-width="2" fill="none"/><path d="M725.36 363.33l14.27-4.63v9.27z" stroke="#333" stroke-width="2" fill="#333"/><path d="M761.13 364.33h-1.03v-2h1.02z" fill="#333"/><path d="M503.63 230h28.25v92h10.74" stroke="#333" stroke-width="2" fill="none"/><path d="M503.65 231h-1.02v-2h1.02z" fill="#333"/><path d="M557.9 322l-14.28 4.64v-9.28z" stroke="#333" stroke-width="2" fill="#333"/><path d="M772.25 480H911v62.08H772.25z" stroke="#000" stroke-opacity="0" stroke-width="2" fill="#fff" fill-opacity="0"/><use xlink:href="#u" transform="matrix(1,0,0,1,777.25,485) translate(14.999131944444443 34.095486111111114)"/><use xlink:href="#v" transform="matrix(1,0,0,1,777.25,485) translate(38.82725694444444 34.095486111111114)"/><path d="M1073.38 447.63h218.74v62.08h-218.74z" stroke="#000" stroke-opacity="0" stroke-width="2" fill="#fff" fill-opacity="0"/><g><use xlink:href="#w" transform="matrix(1,0,0,1,1078.375,452.6284153005464) translate(29.59765625 21.07465277777778)"/><use xlink:href="#x" transform="matrix(1,0,0,1,1078.375,452.6284153005464) translate(53.42578125 21.07465277777778)"/><use xlink:href="#y" transform="matrix(1,0,0,1,1078.375,452.6284153005464) translate(123.19574652777777 21.07465277777778)"/><use xlink:href="#z" transform="matrix(1,0,0,1,1078.375,452.6284153005464) translate(58.91080729166667 47.11631944444444)"/></g><path d="M1073.38 180h218.74v88.13h-218.74z" stroke="#000" stroke-opacity="0" stroke-width="2" fill="#fff" fill-opacity="0"/><g><use xlink:href="#A" transform="matrix(1,0,0,1,1078.375,185) translate(29.59765625 34.07465277777778)"/><use xlink:href="#x" transform="matrix(1,0,0,1,1078.375,185) translate(53.42578125 34.07465277777778)"/><use xlink:href="#y" transform="matrix(1,0,0,1,1078.375,185) translate(123.19574652777777 34.07465277777778)"/><use xlink:href="#B" transform="matrix(1,0,0,1,1078.375,185) translate(67.27126736111111 60.11631944444444)"/></g><path d="M541.63 437.92h200V500h-200z" stroke="#000" stroke-opacity="0" stroke-width="2" fill="#fff" fill-opacity="0"/><g><use xlink:href="#C" transform="matrix(1,0,0,1,546.625,442.9166666666667) translate(9.870876736111114 34.095486111111114)"/><use xlink:href="#D" transform="matrix(1,0,0,1,546.625,442.9166666666667) translate(33.699001736111114 34.095486111111114)"/><use xlink:href="#z" transform="matrix(1,0,0,1,546.625,442.9166666666667) translate(88.95073784722221 34.095486111111114)"/></g><g opacity=".8" stroke="#000" stroke-opacity="0"><path d="M259.13 400h80v80h-80z" fill-opacity="0"/><path d="M325.85 451.28c-4.1 0-8.1-.64-11.76-1.92-1.22-.32-2.5-.08-3.38.88l-5.28 6.56c-9.44-4.56-18.24-13.04-22.95-22.8l6.47-5.52c.95-.96 1.2-2.24.8-3.44-1.2-3.68-1.84-7.6-1.84-11.76 0-1.76-1.52-3.28-3.3-3.28h-11.5c-1.84 0-4 .8-4 3.28 0 30.96 25.75 56.72 56.72 56.72 2.3 0 3.27-2.08 3.27-3.92v-11.52c0-1.76-1.5-3.28-3.27-3.28z"/></g><g opacity=".8" stroke="#000" stroke-opacity="0"><path d="M262.13 180h80v80h-80z" fill-opacity="0"/><path d="M328.85 231.28c-4.1 0-8.1-.64-11.76-1.92-1.22-.32-2.5-.08-3.38.88l-5.28 6.56c-9.44-4.56-18.24-13.04-22.95-22.8l6.47-5.52c.95-.96 1.2-2.24.8-3.44-1.2-3.68-1.84-7.6-1.84-11.76 0-1.76-1.52-3.28-3.3-3.28h-11.5c-1.84 0-4 .8-4 3.28 0 30.96 25.75 56.72 56.72 56.72 2.3 0 3.27-2.08 3.27-3.92v-11.52c0-1.76-1.5-3.28-3.27-3.28z"/></g><defs><path fill="#333" d="M375 0H183v-1456h192V0" id="E"/><path fill="#333" d="M589-945c-131 0-219 81-264 174V0H140v-1082h175l6 136c83-104 191-156 324-156 229 0 346 129 346 387V0H806v-716c-2-153-65-229-217-229" id="F"/><path fill="#333" d="M632-1102c291 0 422 251 422 573 0 297-141 548-419 549-131 0-235-42-310-125v521H140v-1498h169l9 120c75-93 180-140 314-140zm-53 971c207 0 290-180 290-419 0-218-92-395-292-395-112 0-196 50-252 149v517c55 99 140 148 254 148" id="G"/><path fill="#333" d="M491 20c-241-1-355-148-355-398v-704h185v699c0 164 67 246 200 246 141 0 235-53 282-158v-787h185V0H812l-4-107C736-22 630 20 491 20" id="H"/><path fill="#333" d="M456 20C285 20 205-92 206-268v-671H9v-143h197v-262h185v262h202v143H391v671c-9 125 92 149 207 118V0c-49 13-96 20-142 20" id="I"/><g id="a"><use transform="matrix(0.010850694444444444,0,0,0.010850694444444444,0,0)" xlink:href="#E"/><use transform="matrix(0.010850694444444444,0,0,0.010850694444444444,6.043836805555555,0)" xlink:href="#F"/><use transform="matrix(0.010850694444444444,0,0,0.010850694444444444,18.30512152777778,0)" xlink:href="#G"/><use transform="matrix(0.010850694444444444,0,0,0.010850694444444444,30.772569444444443,0)" xlink:href="#H"/><use transform="matrix(0.010850694444444444,0,0,0.010850694444444444,43.02300347222222,0)" xlink:href="#I"/></g><path fill="#333" d="M703-1476c426 0 599 333 586 795-11 408-187 701-584 701-422 0-587-333-587-793 0-282 106-507 280-617 89-56 190-86 305-86zm2 1333c312 0 393-279 393-632 0-308-116-536-395-536-269 0-394 232-394 523v107c-4 298 123 538 396 538" id="J"/><g id="b"><use transform="matrix(0.010850694444444444,0,0,0.010850694444444444,0,0)" xlink:href="#J"/><use transform="matrix(0.010850694444444444,0,0,0.010850694444444444,15.277777777777777,0)" xlink:href="#H"/><use transform="matrix(0.010850694444444444,0,0,0.010850694444444444,27.528211805555554,0)" xlink:href="#I"/><use transform="matrix(0.010850694444444444,0,0,0.010850694444444444,34.787326388888886,0)" xlink:href="#G"/><use transform="matrix(0.010850694444444444,0,0,0.010850694444444444,47.25477430555556,0)" xlink:href="#H"/><use transform="matrix(0.010850694444444444,0,0,0.010850694444444444,59.50520833333333,0)" xlink:href="#I"/></g><path fill="#333" d="M973-380H363L226 0H28l556-1456h168L1309 0h-197zM421-538h495l-248-681" id="K"/><path fill="#333" d="M1216-1011c-1 297-202 441-512 441H361V0H169v-1456h537c297-6 510 164 510 445zm-192 2c1-178-126-288-307-289H361v571h345c196 1 318-92 318-282" id="L"/><g id="c"><use transform="matrix(0.010850694444444444,0,0,0.010850694444444444,0,0)" xlink:href="#K"/><use transform="matrix(0.010850694444444444,0,0,0.010850694444444444,14.496527777777777,0)" xlink:href="#L"/><use transform="matrix(0.010850694444444444,0,0,0.010850694444444444,28.515625,0)" xlink:href="#E"/></g><path fill="#333" d="M538-131c121 0 232-49 232-156 0-50-20-88-56-117-73-60-334-92-420-143-92-55-162-110-162-238 0-190 192-317 400-317 223 0 414 129 413 338H759c0-108-110-186-227-186-119 0-215 53-215 159 0 45 18 78 53 101 76 52 331 90 416 139 98 57 169 115 169 251C955-92 760 20 538 20c-176 0-314-68-386-174-38-55-57-115-57-179h185c6 129 116 202 258 202" id="M"/><path fill="#333" d="M599-131c141 0 220-65 285-146l113 88C906-50 770 20 589 20 281 21 93-214 93-545c0-223 93-397 233-485 74-48 154-72 240-72 300 2 449 218 445 537v77H278c0 197 129 357 321 357zm227-509c-3-180-88-310-260-310-170 0-264 140-282 310h542" id="N"/><path fill="#333" d="M663-916c-163-27-288 18-338 148V0H140v-1082h180l3 125c61-97 147-145 258-145 36 0 63 5 82 14v172" id="O"/><path fill="#333" d="M497-251l268-831h189L566 0H425L33-1082h189" id="P"/><path fill="#333" d="M341 0H156v-1082h185V0zm-91-1264c-68 0-108-42-109-105 0-62 41-107 109-107s110 44 110 107-42 105-110 105" id="Q"/><path fill="#333" d="M277-555c0 244 77 420 297 424 127 2 249-93 255-210h175C980-127 805 20 574 20 258 20 81-222 92-562c11-319 164-533 481-540 237-5 426 165 431 392H829c-7-133-115-242-256-240-209 4-296 166-296 395" id="R"/><g id="d"><use transform="matrix(0.010850694444444444,0,0,0.010850694444444444,0,0)" xlink:href="#M"/><use transform="matrix(0.010850694444444444,0,0,0.010850694444444444,11.458333333333332,0)" xlink:href="#N"/><use transform="matrix(0.010850694444444444,0,0,0.010850694444444444,23.231336805555554,0)" xlink:href="#O"/><use transform="matrix(0.010850694444444444,0,0,0.010850694444444444,30.946180555555554,0)" xlink:href="#P"/><use transform="matrix(0.010850694444444444,0,0,0.010850694444444444,41.71006944444444,0)" xlink:href="#Q"/><use transform="matrix(0.010850694444444444,0,0,0.010850694444444444,47.10286458333333,0)" xlink:href="#R"/><use transform="matrix(0.010850694444444444,0,0,0.010850694444444444,58.73480902777778,0)" xlink:href="#N"/></g><path fill="#333" d="M613-725l380-731h218L709-543V0H517v-543L15-1456h220" id="S"/><path fill="#333" d="M584 20C278 26 81-227 91-551c10-320 175-545 491-551 308-5 503 247 494 573-9 322-175 543-492 549zm-2-970c-208 0-305 185-305 421 0 216 106 398 307 398 211 0 307-186 307-420 0-214-109-399-309-399" id="T"/><g id="e"><use transform="matrix(0.010850694444444444,0,0,0.010850694444444444,0,0)" xlink:href="#S"/><use transform="matrix(0.010850694444444444,0,0,0.010850694444444444,12.641059027777777,0)" xlink:href="#T"/><use transform="matrix(0.010850694444444444,0,0,0.010850694444444444,25.31467013888889,0)" xlink:href="#H"/><use transform="matrix(0.010850694444444444,0,0,0.010850694444444444,37.565104166666664,0)" xlink:href="#O"/></g><g id="f"><use transform="matrix(0.010850694444444444,0,0,0.010850694444444444,0,0)" xlink:href="#M"/><use transform="matrix(0.010850694444444444,0,0,0.010850694444444444,11.458333333333332,0)" xlink:href="#N"/><use transform="matrix(0.010850694444444444,0,0,0.010850694444444444,23.231336805555554,0)" xlink:href="#O"/><use transform="matrix(0.010850694444444444,0,0,0.010850694444444444,30.946180555555554,0)" xlink:href="#P"/><use transform="matrix(0.010850694444444444,0,0,0.010850694444444444,41.71006944444444,0)" xlink:href="#Q"/><use transform="matrix(0.010850694444444444,0,0,0.010850694444444444,47.10286458333333,0)" xlink:href="#R"/><use transform="matrix(0.010850694444444444,0,0,0.010850694444444444,58.73480902777778,0)" xlink:href="#N"/></g><path fill="#333" d="M130 0v-1456h448c435 14 673 299 665 762-5 285-130 500-319 606C822-31 708 0 581 0H130zm809-685c9-311-79-526-361-528H430v972h145c252-2 356-181 364-444" id="U"/><path fill="#333" d="M416 0H126v-1082h290V0zM271-1212c-92 0-162-61-162-150s68-149 162-149c93 0 162 60 162 149s-70 150-162 150" id="V"/><path fill="#333" d="M552-1102c254-4 435 134 435 383v469c1 103 15 180 43 233V0H738c-13-26-23-58-29-97C639-19 548 20 436 20 238 20 64-113 68-304c5-258 212-357 496-357h133c11-137-29-227-160-227-90 0-156 45-156 131H92c15-231 213-342 460-345zM357-325c0 76 61 124 142 124 88 0 168-45 198-105v-186H589c-152 2-232 51-232 167" id="W"/><path fill="#333" d="M416 0H126v-1536h290V0" id="X"/><path fill="#333" d="M579 20C257 20 58-214 66-551c8-331 182-551 511-551 324 0 514 231 514 572 0 319-198 550-512 550zm-2-888c-169 0-222 141-222 338 0 181 61 317 224 317 170 0 223-137 223-338 0-178-64-317-225-317" id="Y"/><path fill="#333" d="M505 20C221 18 69-239 69-549c0-302 153-553 438-553 119 0 211 41 277 122l12-102h262V-36c-8 305-208 458-520 462-160 1-335-76-403-170L263 80c72 81 159 121 262 121 172 1 260-107 243-294C701-18 614 20 505 20zm76-887c-165 0-223 147-223 339 0 172 66 314 221 314 88 0 151-33 189-99v-455c-39-66-101-99-187-99" id="Z"/><path fill="#333" d="M190-1174c-11-296 244-440 544-363l-3 224c-24-6-53-9-88-9-109 0-163 51-163 153v87h215v212H480V0H190v-870H29v-212h161v-92" id="aa"/><path fill="#333" d="M1052-393l142-689h279L1197 0H955L750-681 545 0H304L28-1082h279l141 688 198-688h209" id="ab"/><g id="g"><use transform="matrix(0.010850694444444444,0,0,0.010850694444444444,0,0)" xlink:href="#U"/><use transform="matrix(0.010850694444444444,0,0,0.010850694444444444,14.442274305555555,0)" xlink:href="#V"/><use transform="matrix(0.010850694444444444,0,0,0.010850694444444444,20.33420138888889,0)" xlink:href="#W"/><use transform="matrix(0.010850694444444444,0,0,0.010850694444444444,32.248263888888886,0)" xlink:href="#X"/><use transform="matrix(0.010850694444444444,0,0,0.010850694444444444,38.14019097222222,0)" xlink:href="#Y"/><use transform="matrix(0.010850694444444444,0,0,0.010850694444444444,50.705295138888886,0)" xlink:href="#Z"/><use transform="matrix(0.010850694444444444,0,0,0.010850694444444444,63.38975694444444,0)" xlink:href="#aa"/><use transform="matrix(0.010850694444444444,0,0,0.010850694444444444,71.35416666666667,0)" xlink:href="#X"/><use transform="matrix(0.010850694444444444,0,0,0.010850694444444444,77.24609375,0)" xlink:href="#Y"/><use transform="matrix(0.010850694444444444,0,0,0.010850694444444444,89.81119791666666,0)" xlink:href="#ab"/></g><path fill="#333" d="M1006-631H430v390h676V0H130v-1456h974v243H430v347h576v235" id="ac"/><path fill="#333" d="M750-692c-1-124-48-174-173-175-81 0-142 35-183 104V0H105v-1082h272l9 125c77-97 181-145 311-145 244 0 342 151 342 403V0H750v-692" id="ad"/><path fill="#333" d="M488 20C204 20 66-234 66-549c0-305 140-551 424-553 105 0 192 39 261 118v-552h290V0H780l-14-115C694-25 601 20 488 20zM355-528c0 176 51 314 207 314 89 0 152-38 189-113v-427c-36-75-98-113-187-113-139 0-209 113-209 339" id="ae"/><path fill="#333" d="M673-507H110v-233h563v233" id="af"/><path fill="#333" d="M463 20c-241-1-359-147-359-393v-709h289v699c0 113 51 169 154 169 98 0 165-34 202-102v-766h290V0H767l-8-110C688-23 589 20 463 20" id="ag"/><path fill="#333" d="M529-185c94 0 168-33 168-114 0-35-18-63-53-83s-91-39-168-55C219-491 90-600 90-765c0-208 203-337 432-337 246 0 451 124 453 349H686c-2-91-62-143-165-143-86 0-151 41-153 117 0 32 16 57 46 77 63 43 257 69 335 100 151 60 229 153 229 291C978-13 554 93 282-28 162-81 60-190 56-344h274c5 106 86 159 199 159" id="ah"/><path fill="#333" d="M1031-175C952-60 797 20 609 20 287 20 60-206 72-543c12-330 180-559 505-559 309 0 482 214 477 537v118H365c15 134 115 234 263 234 111 0 198-40 261-121zM770-644c5-139-62-226-194-224-130 1-191 97-208 224h402" id="ai"/><path fill="#333" d="M719-811c-143-24-279 1-319 103V0H111v-1082h273l8 129c74-124 180-175 331-136" id="aj"/><g id="h"><use transform="matrix(0.010850694444444444,0,0,0.010850694444444444,0,0)" xlink:href="#ac"/><use transform="matrix(0.010850694444444444,0,0,0.010850694444444444,12.5,0)" xlink:href="#ad"/><use transform="matrix(0.010850694444444444,0,0,0.010850694444444444,24.94574652777778,0)" xlink:href="#ae"/><use transform="matrix(0.010850694444444444,0,0,0.010850694444444444,37.46744791666667,0)" xlink:href="#af"/><use transform="matrix(0.010850694444444444,0,0,0.010850694444444444,46.08289930555556,0)" xlink:href="#ag"/><use transform="matrix(0.010850694444444444,0,0,0.010850694444444444,58.517795138888886,0)" xlink:href="#ah"/><use transform="matrix(0.010850694444444444,0,0,0.010850694444444444,69.94357638888889,0)" xlink:href="#ai"/><use transform="matrix(0.010850694444444444,0,0,0.010850694444444444,81.95529513888889,0)" xlink:href="#aj"/></g><path fill="#333" d="M632-800l303-656h328L785-528V0H480v-528L2-1456h329" id="ak"/><g id="i"><use transform="matrix(0.010850694444444444,0,0,0.010850694444444444,0,0)" xlink:href="#ak"/><use transform="matrix(0.010850694444444444,0,0,0.010850694444444444,13.031684027777777,0)" xlink:href="#Y"/><use transform="matrix(0.010850694444444444,0,0,0.010850694444444444,25.596788194444443,0)" xlink:href="#ag"/><use transform="matrix(0.010850694444444444,0,0,0.010850694444444444,38.03168402777777,0)" xlink:href="#aj"/></g><path fill="#333" d="M515-409l200-673h310L590 168c-66 202-236 321-472 250V199c127 7 198-15 230-107l34-89L3-1082h311" id="al"/><path fill="#333" d="M457-330c2 83 25 111 111 112 32 0 60-2 85-7V-6c-57 17-115 26-175 26-203 0-310-102-310-307v-583H10v-212h158v-266h289v266h185v212H457v540" id="am"/><path fill="#333" d="M741-689c-2-124-40-177-163-178-82 0-141 34-178 102V0H111v-1082h271l9 121c77-94 180-141 311-141 139 0 235 55 287 165 76-110 184-165 325-165 249 0 348 151 348 411V0h-290v-690c-2-123-39-176-163-177-87 0-147 41-180 124l1 743H741v-689" id="an"/><g id="j"><use transform="matrix(0.010850694444444444,0,0,0.010850694444444444,0,0)" xlink:href="#ah"/><use transform="matrix(0.010850694444444444,0,0,0.010850694444444444,11.42578125,0)" xlink:href="#al"/><use transform="matrix(0.010850694444444444,0,0,0.010850694444444444,22.58029513888889,0)" xlink:href="#ah"/><use transform="matrix(0.010850694444444444,0,0,0.010850694444444444,34.006076388888886,0)" xlink:href="#am"/><use transform="matrix(0.010850694444444444,0,0,0.010850694444444444,41.51475694444444,0)" xlink:href="#ai"/><use transform="matrix(0.010850694444444444,0,0,0.010850694444444444,53.52647569444444,0)" xlink:href="#an"/></g><path fill="#333" d="M992-673H361v516h733V0H169v-1456h915v158H361v468h631v157" id="ao"/><path fill="#333" d="M503-687l240-395h216L605-547 970 0H756L506-405 256 0H41l365-547-354-535h214" id="ap"/><path fill="#333" d="M561-1102c238-4 403 126 403 351v498c0 99 13 178 38 237V0H808c-11-21-19-59-26-114C696-25 593 20 474 20c-199 0-368-130-365-320 4-251 214-359 490-356h180v-85c-1-135-86-212-229-212-115 0-232 67-233 171H131c20-205 206-316 430-320zM294-326c0 117 90 185 207 185 122 0 239-75 278-162v-222H634c-227 0-340 66-340 199" id="aq"/><path fill="#333" d="M341 0H156v-1536h185V0" id="ar"/><g id="k"><use transform="matrix(0.010850694444444444,0,0,0.010850694444444444,0,0)" xlink:href="#ao"/><use transform="matrix(0.010850694444444444,0,0,0.010850694444444444,12.630208333333332,0)" xlink:href="#ap"/><use transform="matrix(0.010850694444444444,0,0,0.010850694444444444,23.643663194444443,0)" xlink:href="#I"/><use transform="matrix(0.010850694444444444,0,0,0.010850694444444444,30.902777777777775,0)" xlink:href="#N"/><use transform="matrix(0.010850694444444444,0,0,0.010850694444444444,42.67578125,0)" xlink:href="#O"/><use transform="matrix(0.010850694444444444,0,0,0.010850694444444444,50.1953125,0)" xlink:href="#F"/><use transform="matrix(0.010850694444444444,0,0,0.010850694444444444,62.45659722222222,0)" xlink:href="#aq"/><use transform="matrix(0.010850694444444444,0,0,0.010850694444444444,74.54427083333333,0)" xlink:href="#ar"/></g><g id="l"><use transform="matrix(0.010850694444444444,0,0,0.010850694444444444,0,0)" xlink:href="#K"/><use transform="matrix(0.010850694444444444,0,0,0.010850694444444444,14.496527777777777,0)" xlink:href="#L"/><use transform="matrix(0.010850694444444444,0,0,0.010850694444444444,28.515625,0)" xlink:href="#E"/><use transform="matrix(0.010850694444444444,0,0,0.010850694444444444,34.55946180555556,0)" xlink:href="#M"/></g><path fill="#333" d="M1222-777c17 480-206 763-650 777H169v-1456h411c408 9 627 269 642 679zm-190 4c3-312-149-522-447-525H361v1141h202c308 0 473-209 469-531v-85" id="as"/><path fill="#333" d="M634-1102c292 0 422 254 422 573 0 298-143 547-420 549-137 0-242-48-317-145L310 0H140v-1536h185v573c75-93 178-139 309-139zm-44 965c207 0 281-175 281-413 0-224-79-395-283-395-122 0-210 57-263 170v468c57 113 145 170 265 170" id="at"/><g id="m"><use transform="matrix(0.010850694444444444,0,0,0.010850694444444444,0,0)" xlink:href="#as"/><use transform="matrix(0.010850694444444444,0,0,0.010850694444444444,14.572482638888888,0)" xlink:href="#aq"/><use transform="matrix(0.010850694444444444,0,0,0.010850694444444444,26.66015625,0)" xlink:href="#I"/><use transform="matrix(0.010850694444444444,0,0,0.010850694444444444,33.919270833333336,0)" xlink:href="#aq"/><use transform="matrix(0.010850694444444444,0,0,0.010850694444444444,46.00694444444444,0)" xlink:href="#at"/><use transform="matrix(0.010850694444444444,0,0,0.010850694444444444,58.47439236111111,0)" xlink:href="#aq"/><use transform="matrix(0.010850694444444444,0,0,0.010850694444444444,70.56206597222221,0)" xlink:href="#M"/><use transform="matrix(0.010850694444444444,0,0,0.010850694444444444,82.02039930555554,0)" xlink:href="#N"/></g><path fill="#333" d="M132-554c0-555 187-908 715-903v157c-320-8-501 179-526 477 77-88 181-132 314-132 259 0 417 214 417 480 0 286-172 495-451 495-293 0-469-266-469-574zm737 88c0-181-95-335-265-335-133 0-252 96-286 200v68c-6 207 101 397 283 400 175 3 268-150 268-333" id="au"/><path fill="#333" d="M258 11c-71 0-114-43-114-108 0-67 42-112 114-112s116 45 116 112c-1 65-45 108-116 108" id="av"/><g id="n"><use transform="matrix(0.010850694444444444,0,0,0.010850694444444444,0,0)" xlink:href="#au"/><use transform="matrix(0.010850694444444444,0,0,0.010850694444444444,12.47829861111111,0)" xlink:href="#av"/></g><path fill="#333" d="M1161-1018c0 201-122 330-278 388l342 618V0h-206L703-589H361V0H168v-1456h482c310-2 511 139 511 438zm-193 0c0-187-120-280-313-280H361v552h295c179 3 313-101 312-272" id="aw"/><g id="o"><use transform="matrix(0.010850694444444444,0,0,0.010850694444444444,0,0)" xlink:href="#aw"/><use transform="matrix(0.010850694444444444,0,0,0.010850694444444444,13.682725694444445,0)" xlink:href="#N"/><use transform="matrix(0.010850694444444444,0,0,0.010850694444444444,25.455729166666664,0)" xlink:href="#M"/><use transform="matrix(0.010850694444444444,0,0,0.010850694444444444,36.9140625,0)" xlink:href="#G"/><use transform="matrix(0.010850694444444444,0,0,0.010850694444444444,49.381510416666664,0)" xlink:href="#T"/><use transform="matrix(0.010850694444444444,0,0,0.010850694444444444,62.05512152777778,0)" xlink:href="#F"/><use transform="matrix(0.010850694444444444,0,0,0.010850694444444444,74.31640625,0)" xlink:href="#M"/><use transform="matrix(0.010850694444444444,0,0,0.010850694444444444,85.77473958333333,0)" xlink:href="#N"/></g><path fill="#333" d="M729 0H543v-1233l-373 137v-168l530-199h29V0" id="ax"/><g id="p"><use transform="matrix(0.010850694444444444,0,0,0.010850694444444444,0,0)" xlink:href="#ax"/><use transform="matrix(0.010850694444444444,0,0,0.010850694444444444,12.47829861111111,0)" xlink:href="#av"/></g><g id="q"><use transform="matrix(0.010850694444444444,0,0,0.010850694444444444,0,0)" xlink:href="#ao"/><use transform="matrix(0.010850694444444444,0,0,0.010850694444444444,12.630208333333332,0)" xlink:href="#ap"/><use transform="matrix(0.010850694444444444,0,0,0.010850694444444444,23.643663194444443,0)" xlink:href="#G"/><use transform="matrix(0.010850694444444444,0,0,0.010850694444444444,36.11111111111111,0)" xlink:href="#O"/><use transform="matrix(0.010850694444444444,0,0,0.010850694444444444,43.424479166666664,0)" xlink:href="#N"/><use transform="matrix(0.010850694444444444,0,0,0.010850694444444444,55.197482638888886,0)" xlink:href="#M"/><use transform="matrix(0.010850694444444444,0,0,0.010850694444444444,66.65581597222221,0)" xlink:href="#M"/><use transform="matrix(0.010850694444444444,0,0,0.010850694444444444,78.11414930555554,0)" xlink:href="#Q"/><use transform="matrix(0.010850694444444444,0,0,0.010850694444444444,83.50694444444443,0)" xlink:href="#T"/><use transform="matrix(0.010850694444444444,0,0,0.010850694444444444,96.18055555555556,0)" xlink:href="#F"/></g><g id="r"><use transform="matrix(0.010850694444444444,0,0,0.010850694444444444,0,0)" xlink:href="#S"/><use transform="matrix(0.010850694444444444,0,0,0.010850694444444444,12.641059027777777,0)" xlink:href="#T"/><use transform="matrix(0.010850694444444444,0,0,0.010850694444444444,25.31467013888889,0)" xlink:href="#H"/><use transform="matrix(0.010850694444444444,0,0,0.010850694444444444,37.565104166666664,0)" xlink:href="#O"/></g><g id="s"><use transform="matrix(0.010850694444444444,0,0,0.010850694444444444,0,0)" xlink:href="#R"/><use transform="matrix(0.010850694444444444,0,0,0.010850694444444444,11.631944444444445,0)" xlink:href="#ar"/><use transform="matrix(0.010850694444444444,0,0,0.010850694444444444,17.024739583333332,0)" xlink:href="#Q"/><use transform="matrix(0.010850694444444444,0,0,0.010850694444444444,22.41753472222222,0)" xlink:href="#N"/><use transform="matrix(0.010850694444444444,0,0,0.010850694444444444,34.19053819444444,0)" xlink:href="#F"/><use transform="matrix(0.010850694444444444,0,0,0.010850694444444444,46.451822916666664,0)" xlink:href="#I"/></g><g id="t"><use transform="matrix(0.010850694444444444,0,0,0.010850694444444444,0,0)" xlink:href="#aq"/><use transform="matrix(0.010850694444444444,0,0,0.010850694444444444,12.08767361111111,0)" xlink:href="#G"/><use transform="matrix(0.010850694444444444,0,0,0.010850694444444444,24.55512152777778,0)" xlink:href="#G"/></g><path fill="#333" d="M902-489h202v151H902V0H716v-338H53v-109l652-1009h197v967zm-639 0h453v-714l-22 40" id="ay"/><g id="u"><use transform="matrix(0.010850694444444444,0,0,0.010850694444444444,0,0)" xlink:href="#ay"/><use transform="matrix(0.010850694444444444,0,0,0.010850694444444444,12.47829861111111,0)" xlink:href="#av"/></g><g id="v"><use transform="matrix(0.010850694444444444,0,0,0.010850694444444444,0,0)" xlink:href="#K"/><use transform="matrix(0.010850694444444444,0,0,0.010850694444444444,14.496527777777777,0)" xlink:href="#R"/><use transform="matrix(0.010850694444444444,0,0,0.010850694444444444,26.12847222222222,0)" xlink:href="#I"/><use transform="matrix(0.010850694444444444,0,0,0.010850694444444444,33.38758680555556,0)" xlink:href="#Q"/><use transform="matrix(0.010850694444444444,0,0,0.010850694444444444,38.78038194444444,0)" xlink:href="#T"/><use transform="matrix(0.010850694444444444,0,0,0.010850694444444444,51.45399305555556,0)" xlink:href="#F"/><use transform="matrix(0.010850694444444444,0,0,0.010850694444444444,63.71527777777778,0)" xlink:href="#M"/></g><path fill="#333" d="M832-402c-1-179-119-264-303-265H390v-151h139c164 0 281-91 281-250 0-171-85-256-255-256-154 0-265 99-263 250H107c-4-235 205-402 448-402 266 0 444 150 440 412-2 148-109 272-229 317 147 45 249 158 251 341 3 262-197 426-461 426C299 20 91-135 94-384h186c-2 156 116 253 276 253 176 0 277-96 276-271" id="az"/><g id="w"><use transform="matrix(0.010850694444444444,0,0,0.010850694444444444,0,0)" xlink:href="#az"/><use transform="matrix(0.010850694444444444,0,0,0.010850694444444444,12.47829861111111,0)" xlink:href="#av"/></g><g id="x"><use transform="matrix(0.010850694444444444,0,0,0.010850694444444444,0,0)" xlink:href="#as"/><use transform="matrix(0.010850694444444444,0,0,0.010850694444444444,14.572482638888888,0)" xlink:href="#N"/><use transform="matrix(0.010850694444444444,0,0,0.010850694444444444,26.345486111111104,0)" xlink:href="#I"/><use transform="matrix(0.010850694444444444,0,0,0.010850694444444444,33.60460069444444,0)" xlink:href="#N"/><use transform="matrix(0.010850694444444444,0,0,0.010850694444444444,45.377604166666664,0)" xlink:href="#R"/><use transform="matrix(0.010850694444444444,0,0,0.010850694444444444,57.00954861111111,0)" xlink:href="#I"/></g><g id="y"><use transform="matrix(0.010850694444444444,0,0,0.010850694444444444,0,0)" xlink:href="#Q"/><use transform="matrix(0.010850694444444444,0,0,0.010850694444444444,5.392795138888888,0)" xlink:href="#F"/><use transform="matrix(0.010850694444444444,0,0,0.010850694444444444,17.65407986111111,0)" xlink:href="#I"/><use transform="matrix(0.010850694444444444,0,0,0.010850694444444444,24.913194444444443,0)" xlink:href="#N"/><use transform="matrix(0.010850694444444444,0,0,0.010850694444444444,36.686197916666664,0)" xlink:href="#F"/><use transform="matrix(0.010850694444444444,0,0,0.010850694444444444,48.947482638888886,0)" xlink:href="#I"/></g><g id="z"><use transform="matrix(0.010850694444444444,0,0,0.010850694444444444,0,0)" xlink:href="#O"/><use transform="matrix(0.010850694444444444,0,0,0.010850694444444444,7.313368055555555,0)" xlink:href="#N"/><use transform="matrix(0.010850694444444444,0,0,0.010850694444444444,19.08637152777778,0)" xlink:href="#M"/><use transform="matrix(0.010850694444444444,0,0,0.010850694444444444,30.54470486111111,0)" xlink:href="#G"/><use transform="matrix(0.010850694444444444,0,0,0.010850694444444444,43.01215277777778,0)" xlink:href="#T"/><use transform="matrix(0.010850694444444444,0,0,0.010850694444444444,55.685763888888886,0)" xlink:href="#F"/><use transform="matrix(0.010850694444444444,0,0,0.010850694444444444,67.94704861111111,0)" xlink:href="#M"/><use transform="matrix(0.010850694444444444,0,0,0.010850694444444444,79.40538194444444,0)" xlink:href="#N"/></g><path fill="#333" d="M569-1476c255 0 440 146 439 390 0 143-91 314-274 512L344-151h731V0H121v-133l504-560c75-85 125-155 155-207 105-184 6-424-211-424-183 0-293 113-291 297H93c-3-270 199-449 476-449" id="aA"/><g id="A"><use transform="matrix(0.010850694444444444,0,0,0.010850694444444444,0,0)" xlink:href="#aA"/><use transform="matrix(0.010850694444444444,0,0,0.010850694444444444,12.47829861111111,0)" xlink:href="#av"/></g><path fill="#333" d="M524 20C238 18 95-240 95-550c0-307 146-552 431-552 128 0 229 43 303 129l8-109h170V416H822v-516C747-20 648 20 524 20zm48-970c-208 0-292 182-292 421 0 219 92 398 290 398 110 0 194-49 252-146v-530c-59-95-142-143-250-143" id="aB"/><g id="B"><use transform="matrix(0.010850694444444444,0,0,0.010850694444444444,0,0)" xlink:href="#O"/><use transform="matrix(0.010850694444444444,0,0,0.010850694444444444,7.313368055555555,0)" xlink:href="#N"/><use transform="matrix(0.010850694444444444,0,0,0.010850694444444444,19.08637152777778,0)" xlink:href="#aB"/><use transform="matrix(0.010850694444444444,0,0,0.010850694444444444,31.71657986111111,0)" xlink:href="#H"/><use transform="matrix(0.010850694444444444,0,0,0.010850694444444444,43.967013888888886,0)" xlink:href="#N"/><use transform="matrix(0.010850694444444444,0,0,0.010850694444444444,55.74001736111111,0)" xlink:href="#M"/><use transform="matrix(0.010850694444444444,0,0,0.010850694444444444,67.19835069444444,0)" xlink:href="#I"/></g><path fill="#333" d="M884-462c0-185-111-323-291-323-113 0-183 39-239 93l-148-38 74-726h746v171H437l-44 397c71-42 152-63 243-63 273-2 433 205 433 487 0 293-170 484-461 484-260 0-436-159-454-403h175c20 156 111 252 279 252 182 0 276-140 276-331" id="aC"/><g id="C"><use transform="matrix(0.010850694444444444,0,0,0.010850694444444444,0,0)" xlink:href="#aC"/><use transform="matrix(0.010850694444444444,0,0,0.010850694444444444,12.47829861111111,0)" xlink:href="#av"/></g><path fill="#333" d="M631-137c179 0 314-70 314-231 0-71-25-127-75-166s-141-77-272-115c-165-47-285-106-360-175s-112-154-112-255c0-245 231-397 495-397 206 0 369 89 449 218 43 68 65 142 65 223H942c0-184-129-283-321-283-172 0-299 76-301 236 0 59 26 109 76 150s135 78 256 113c205 59 345 116 436 256 35 53 50 119 50 193-2 256-231 398-507 390C333 12 90-129 80-422h193c0 187 160 285 358 285" id="aD"/><path fill="#333" d="M520 20C244 20 95-247 95-550c0-298 151-550 427-552 127 0 227 43 301 130v-564h185V0H838l-9-116C755-25 652 20 520 20zm48-965c-210 0-288 177-288 416 0 218 87 392 286 392 117 0 203-53 257-158v-497c-55-102-140-153-255-153" id="aE"/><g id="D"><use transform="matrix(0.010850694444444444,0,0,0.010850694444444444,0,0)" xlink:href="#aD"/><use transform="matrix(0.010850694444444444,0,0,0.010850694444444444,13.18359375,0)" xlink:href="#N"/><use transform="matrix(0.010850694444444444,0,0,0.010850694444444444,24.95659722222222,0)" xlink:href="#F"/><use transform="matrix(0.010850694444444444,0,0,0.010850694444444444,37.21788194444444,0)" xlink:href="#aE"/></g></defs></g></svg>